<?xml version="1.0" standalone="no"?>
<!DOCTYPE svg PUBLIC "-//W3C//DTD SVG 20010904//EN"
 "http://www.w3.org/TR/2001/REC-SVG-20010904/DTD/svg10.dtd">
<svg version="1.0" xmlns="http://www.w3.org/2000/svg"
 width="32.000000pt" height="32.000000pt" viewBox="0 0 32.000000 32.000000"
 preserveAspectRatio="xMidYMid meet">

<g transform="translate(0.000000,32.000000) scale(0.100000,-0.100000)"
fill="#000000" stroke="none">
<path d="M190 311 c0 -5 -8 -12 -17 -14 -10 -2 -6 -3 10 -1 19 2 27 -1 27 -11
0 -8 7 -15 15 -15 8 0 15 5 15 10 0 6 5 10 10 10 16 0 11 -27 -6 -34 -13 -5
-13 -9 5 -32 12 -15 21 -31 21 -35 0 -15 -77 -10 -120 7 -37 15 -42 15 -65 0
-28 -19 -45 -21 -45 -5 0 6 9 13 20 16 14 4 19 11 15 24 -4 11 2 26 14 38 25
25 15 28 -17 5 -13 -9 -30 -13 -38 -10 -12 5 -14 -3 -9 -43 3 -30 2 -52 -5
-56 -12 -8 -13 -55 -1 -55 5 0 19 -16 32 -36 25 -41 73 -74 108 -74 33 0 79
34 119 87 35 47 40 71 17 79 -19 8 -19 53 0 60 21 8 19 14 -16 52 -23 26 -33
31 -43 23 -10 -9 -15 -8 -20 4 -6 16 -26 21 -26 6z m95 -60 c7 -12 -12 -24
-25 -16 -11 7 -4 25 10 25 5 0 11 -4 15 -9z m-225 -11 c0 -5 -4 -10 -10 -10
-5 0 -10 5 -10 10 0 6 5 10 10 10 6 0 10 -4 10 -10z m149 -70 c46 0 61 -10 61
-39 0 -69 -83 -135 -141 -110 -45 18 -79 65 -79 108 0 32 4 39 32 53 28 13 37
13 65 2 18 -8 46 -14 62 -14z m-173 -47 c-11 -11 -19 6 -11 24 8 17 8 17 12 0
3 -10 2 -21 -1 -24z m256 5 c-9 -9 -12 -7 -12 12 0 19 3 21 12 12 9 -9 9 -15
0 -24z"/>
<path d="M133 58 c16 -10 44 -10 51 0 2 4 -11 8 -29 8 -21 0 -30 -3 -22 -8z"/>
</g>
</svg>
